<svg id="Layer_1" data-name="Layer 1" xmlns="http://www.w3.org/2000/svg" viewBox="0 0 346 279"><defs><style>.cls-1{fill:#ff9200;}.cls-2,.cls-3,.cls-5,.cls-6,.cls-7,.cls-9{fill:none;}.cls-2,.cls-6,.cls-9{stroke:#0c425d;}.cls-2,.cls-3,.cls-5,.cls-6,.cls-7{stroke-linecap:round;stroke-width:8px;}.cls-2,.cls-5{stroke-linejoin:round;}.cls-3{stroke:#acd4c2;}.cls-3,.cls-6,.cls-7,.cls-9{stroke-miterlimit:10;}.cls-4{fill:#acd4c2;}.cls-5,.cls-7{stroke:#ff9200;}.cls-8{fill:#0c425d;}.cls-9{stroke-width:6px;}</style></defs><title>icons</title><polygon class="cls-1" points="42.33 21.26 42.33 30.71 32.89 30.71 32.89 40.15 23.44 40.15 23.44 30.71 14 30.71 14 21.26 23.44 21.26 23.44 11.82 32.89 11.82 32.89 21.26 42.33 21.26"/><polyline class="cls-2" points="58.63 129.47 58.63 105.22 286.35 105.22 286.35 196.31"/><path class="cls-2" d="M210.45,238.05H69.74s-11.85-1-11.85-13.21v-8.15"/><line class="cls-3" x1="58.18" y1="146.68" x2="58.18" y2="178.8"/><circle class="cls-4" cx="58.63" cy="198.34" r="5.1"/><rect class="cls-4" x="89.03" y="131.82" width="22.7" height="22.7" rx="1.71"/><rect class="cls-4" x="89.03" y="182.78" width="22.7" height="22.7" rx="1.71"/><rect class="cls-4" x="135.91" y="131.82" width="22.7" height="22.7" rx="1.71"/><rect class="cls-4" x="135.91" y="182.78" width="22.7" height="22.7" rx="1.71"/><rect class="cls-4" x="186.87" y="182.78" width="22.7" height="22.7" rx="1.71"/><rect class="cls-4" x="184.83" y="131.82" width="22.7" height="22.7" rx="1.71"/><rect class="cls-4" x="233.75" y="131.82" width="22.7" height="22.7" rx="1.71"/><line class="cls-3" x1="312.92" y1="207.69" x2="312.92" y2="238.05"/><line class="cls-3" x1="330" y1="202" x2="330" y2="220.97"/><path class="cls-5" d="M200.11,88.14l-142.22.14V65.86s0-16.31,14.27-16.31H82.35"/><line class="cls-6" x1="219.65" y1="88.14" x2="249.74" y2="88.14"/><line class="cls-7" x1="137" y1="50.18" x2="210.02" y2="50.18"/><path class="cls-7" d="M263.76,49.55H274s10.19,0,10.19,12.23c0,19,.32,26.36.32,26.36"/><circle class="cls-8" cx="268.99" cy="88.14" r="4.96"/><path class="cls-9" d="M115,35.28s2,20.39,2,24.46-4.07,4.08-4.07,4.08h-8.16s-4.07,0-4.07-4.08,2-24.46,2-24.46,2-6.11,6.11-6.11S115,35.28,115,35.28Z"/><path class="cls-9" d="M243.37,33.25s2,20.38,2,24.45-4.07,4.08-4.07,4.08h-8.16s-4.07,0-4.07-4.08,2-24.45,2-24.45,2-6.12,6.11-6.12S243.37,33.25,243.37,33.25Z"/><line class="cls-5" x1="287.2" y1="238.09" x2="228.09" y2="238.09"/><line class="cls-5" x1="288.22" y1="218.73" x2="229.11" y2="218.73"/><line class="cls-5" x1="288.22" y1="257.45" x2="229.11" y2="257.45"/><line class="cls-5" x1="273.95" y1="210.57" x2="273.95" y2="224.84"/><line class="cls-5" x1="253.57" y1="230.96" x2="253.57" y2="245.22"/><line class="cls-5" x1="273.95" y1="249.3" x2="273.95" y2="263.57"/></svg>