<svg id="Layer_1" data-name="Layer 1" xmlns="http://www.w3.org/2000/svg" viewBox="0 0 508.32 506.46"><defs><style>.cls-1{fill:#e4f5fd;}.cls-10,.cls-11,.cls-12,.cls-13,.cls-14,.cls-16,.cls-17,.cls-2,.cls-3,.cls-5,.cls-7,.cls-8,.cls-9{fill:none;stroke-miterlimit:10;}.cls-11,.cls-12,.cls-2,.cls-3,.cls-7,.cls-9{stroke:#0f425d;}.cls-10,.cls-12,.cls-13,.cls-14,.cls-16,.cls-17,.cls-2,.cls-3,.cls-5,.cls-7,.cls-8,.cls-9{stroke-linecap:round;}.cls-2,.cls-8{stroke-width:5px;}.cls-3{stroke-width:6px;}.cls-4{fill:#f9ae4d;}.cls-10,.cls-5{stroke:#a8d1bd;}.cls-13,.cls-14,.cls-5,.cls-7{stroke-width:4px;}.cls-6{fill:#a8d1bd;}.cls-8{stroke:#f9ae4d;}.cls-10,.cls-17,.cls-9{stroke-width:3px;}.cls-13,.cls-16{stroke:#a7d3bf;}.cls-14,.cls-17{stroke:#0e425e;}.cls-15{fill:#a7d3bf;}.cls-16{stroke-width:2px;}</style></defs><title>BO Login Page_</title><circle class="cls-1" cx="255.56" cy="96.01" r="46.21"/><line class="cls-2" x1="402.1" y1="119.42" x2="500.9" y2="119.42"/><line class="cls-2" x1="339.33" y1="119.71" x2="384.08" y2="119.71"/><line class="cls-3" x1="167.3" y1="119.71" x2="9.22" y2="119.71"/><circle class="cls-4" cx="298.45" cy="57.91" r="5.23"/><circle class="cls-4" cx="393.96" cy="119.42" r="2.47"/><circle class="cls-4" cx="288.9" cy="52.68" r="2.88"/><path class="cls-5" d="M306,98.2V79.61H230.78a.5.5,0,0,0-.28.92L264.36,102a6,6,0,0,0,6.35,0l33.91-21.25"/><circle class="cls-6" cx="306.01" cy="102.53" r="1.67"/><path class="cls-7" d="M230.26,87.74v28s-.09,3.59,3.39,3.59h68.87a3.5,3.5,0,0,0,3.49-3.59c.1-3.58,0-7.74,0-7.74"/><line class="cls-8" x1="220.58" y1="121.64" x2="220.58" y2="129.78"/><line class="cls-8" x1="216.73" y1="126.52" x2="216.73" y2="132.35"/><circle class="cls-1" cx="204.7" cy="123.81" r="5.7"/><line class="cls-9" x1="222.51" y1="85.56" x2="222.51" y2="90.65"/><line class="cls-9" x1="219.9" y1="88.1" x2="225.13" y2="88.1"/><circle class="cls-6" cx="219.04" cy="68.43" r="1.96"/><circle class="cls-6" cx="275.55" cy="136.24" r="1.96"/><path class="cls-7" d="M199,100.67s-2.69-25.13,12.19-39.08"/><path class="cls-7" d="M280.63,146.44s17.58-8.1,21.14-18.31"/><circle class="cls-1" cx="254.77" cy="241.89" r="46.21"/><line class="cls-2" x1="401.3" y1="265.3" x2="500.1" y2="265.3"/><line class="cls-2" x1="338.54" y1="265.59" x2="383.29" y2="265.59"/><line class="cls-3" x1="166.51" y1="265.59" x2="8.43" y2="265.59"/><circle class="cls-4" cx="297.66" cy="203.79" r="5.23"/><circle class="cls-4" cx="393.17" cy="265.3" r="2.47"/><circle class="cls-4" cx="288.1" cy="198.56" r="2.88"/><line class="cls-8" x1="219.78" y1="267.52" x2="219.78" y2="275.66"/><line class="cls-8" x1="215.94" y1="272.4" x2="215.94" y2="278.23"/><circle class="cls-1" cx="203.9" cy="269.69" r="5.7"/><circle class="cls-6" cx="218.25" cy="214.31" r="1.6"/><circle class="cls-6" cx="274.75" cy="282.12" r="1.96"/><path class="cls-7" d="M198.2,246.55s-2.69-25.13,12.19-39.08"/><path class="cls-7" d="M279.84,292.32S297.41,284.22,301,274"/><path class="cls-9" d="M261.91,230.66s-1.74-6.15-5.66-6.15H222.54s-4.36-.15-4.36-3.35v-2.45"/><path class="cls-10" d="M265,220.44V209s-.3-3.34-3.06-3.34H222.69s-4.22,0-4.51,2.76v1.52"/><path class="cls-5" d="M231.69,264V244.85a3.88,3.88,0,0,1,4.07-3.49h64.66s4.07.15,4.07,3.2v.34"/><path class="cls-7" d="M304.49,256.81V264s.62,3.92-2.47,3.82-61.42,0-61.42,0-5.71-.19-5.71,3.88v1.84"/><circle class="cls-6" cx="304.39" cy="251.37" r="1.6"/><circle class="cls-11" cx="269.77" cy="255.61" r="1.17"/><circle class="cls-11" cx="258.87" cy="255.61" r="1.17"/><circle class="cls-11" cx="249.79" cy="214.78" r="1.17"/><circle class="cls-11" cx="240.71" cy="214.78" r="1.17"/><circle class="cls-11" cx="230.97" cy="214.78" r="1.17"/><circle class="cls-11" cx="280.23" cy="255.61" r="1.17"/><polygon class="cls-12" points="282.87 232.75 280.37 231.4 277.85 232.69 278.36 229.9 276.35 227.89 279.16 227.52 280.45 224.99 281.68 227.55 284.48 227.99 282.42 229.94 282.87 232.75"/><circle class="cls-1" cx="253.96" cy="397.91" r="46.03"/><line class="cls-2" x1="399.94" y1="421.23" x2="498.36" y2="421.23"/><line class="cls-2" x1="337.41" y1="421.52" x2="381.99" y2="421.52"/><line class="cls-3" x1="166.03" y1="421.52" x2="8.55" y2="421.52"/><circle class="cls-4" cx="296.69" cy="359.96" r="5.21"/><circle class="cls-4" cx="391.83" cy="421.23" r="2.46"/><circle class="cls-4" cx="287.17" cy="354.75" r="2.87"/><line class="cls-8" x1="219.11" y1="423.45" x2="219.11" y2="431.56"/><line class="cls-8" x1="215.27" y1="428.31" x2="215.27" y2="434.12"/><circle class="cls-1" cx="203.28" cy="425.61" r="5.68"/><circle class="cls-6" cx="217.58" cy="370.44" r="1.95"/><circle class="cls-6" cx="273.87" cy="437.99" r="1.95"/><path class="cls-7" d="M197.6,402.56s-2.68-25,12.15-38.94"/><path class="cls-7" d="M278.93,448.15s17.51-8.07,21.06-18.23"/><path class="cls-13" d="M267.87,386.07V374.59a3.5,3.5,0,0,1,3.83-3.43h31.82s4.63,0,4.63,4.59V399"/><path class="cls-13" d="M218.85,392.51V388a3.5,3.5,0,0,1,3.82-2.94h31.82s4.63,0,4.63,4.34V401"/><path class="cls-14" d="M308.15,409.83v9.46s-1,3.43-3.83,3.43H272.5s-4.63-.2-4.63-3.23V392.11"/><circle class="cls-15" cx="308.1" cy="404.46" r="1.81"/><path class="cls-14" d="M259.12,408.05v3.33s0,3.28-3.82,3.28H223.48a4.63,4.63,0,0,1-4.63-4.93v-6.14"/><circle class="cls-15" cx="219.16" cy="397.75" r="1.81"/><line class="cls-16" x1="222.36" y1="376.65" x2="222.36" y2="380.17"/><line class="cls-16" x1="220.55" y1="378.41" x2="224.17" y2="378.41"/><line class="cls-13" x1="238.99" y1="378.41" x2="259.52" y2="378.41"/><line class="cls-17" x1="275.95" y1="386.25" x2="301.5" y2="386.25"/><line class="cls-17" x1="275.95" y1="380.98" x2="301.5" y2="380.98"/><line class="cls-17" x1="226.21" y1="407.32" x2="251.76" y2="407.32"/><line class="cls-17" x1="226.21" y1="402.05" x2="251.76" y2="402.05"/><rect class="cls-15" x="275.95" y="391.57" width="8.35" height="5.17"/></svg>