<svg id="Layer_1" data-name="Layer 1" xmlns="http://www.w3.org/2000/svg" viewBox="0 0 1090.83 914.4"><defs><style>.cls-1,.cls-2,.cls-4,.cls-6,.cls-7,.cls-8{fill:none;stroke-linecap:round;stroke-miterlimit:10;}.cls-1,.cls-7{stroke:#f9ae4d;}.cls-1,.cls-2,.cls-4,.cls-6{stroke-width:5px;}.cls-2{stroke:#0e425e;}.cls-3{fill:#a7d3bf;}.cls-4,.cls-8{stroke:#a7d3bf;}.cls-5{fill:#f9ae4d;}.cls-6{stroke:#0f425d;}.cls-7{stroke-width:4px;}.cls-8{stroke-width:3px;}.cls-9{fill:#0e425e;}</style></defs><title>BO Login Page_</title><path class="cls-1" d="M905.4,837.1c0-.33,0-.67,0-1a24.13,24.13,0,1,1,9.68,20.33"/><path class="cls-2" d="M1012.79,832.91c.07.36.12.72.17,1.07A24.12,24.12,0,1,1,998.79,815"/><circle class="cls-2" cx="1048.28" cy="836.1" r="24.12"/><circle class="cls-3" cx="1048.28" cy="836.1" r="13.37"/><line class="cls-1" x1="894.24" y1="837.1" x2="877.68" y2="837.1"/><line class="cls-4" x1="855.12" y1="837.1" x2="792.48" y2="837.1"/><circle class="cls-5" cx="866.4" cy="837.1" r="2.59"/><line class="cls-6" x1="31.92" y1="124.27" x2="110.39" y2="124.27"/><line class="cls-4" x1="145.97" y1="124.27" x2="408.41" y2="124.27"/><path class="cls-4" d="M662.21,124.27h363.92s43.24,0,43.24,53.22v40"/><line class="cls-4" x1="602.25" y1="129.31" x2="602.25" y2="119.05"/><circle class="cls-3" cx="602.09" cy="136.89" r="2.56"/><path class="cls-2" d="M545.29,143.17h9.64l-3.84-21.12s10.2-15.75-5.4-15.75"/><path class="cls-2" d="M545.93,143.17h-9.64l3.84-21.12s-10.88-15.75,5.56-15.75"/><line class="cls-7" x1="472.65" y1="159.97" x2="472.65" y2="146.53"/><line class="cls-7" x1="464.45" y1="154.69" x2="464.45" y2="163.09"/><line class="cls-2" x1="516.77" y1="88.57" x2="516.77" y2="83.17"/><path class="cls-4" d="M574.19,88.57V61.93s0-25.74-28.9-25.74c-28.52,0-28.52,26.19-28.52,26.19V69"/><line class="cls-8" x1="500.03" y1="45.37" x2="500.03" y2="53.29"/><line class="cls-8" x1="496.07" y1="49.33" x2="504.35" y2="49.33"/><circle class="cls-9" cx="516.77" cy="76.05" r="2.38"/><circle class="cls-5" cx="585.35" cy="39.71" r="6.03"/><circle class="cls-5" cx="572.93" cy="32.23" r="2.88"/><circle class="cls-5" cx="16.01" cy="124.27" r="3.96"/><path class="cls-2" d="M602.09,110.89V95.77s0-7.2-6.84-7.2H496.61s-8.28,0-8.28,7.56v57.24s0,7.56,7.2,7.56h98.64s7.92,0,7.92-6.48v-9.72"/><path class="cls-2" d="M777.34,837.1H65.62S19,837.1,19,783.88v-40"/><line class="cls-2" x1="489.32" y1="349.89" x2="494.99" y2="339.09"/><line class="cls-7" x1="478.78" y1="396.28" x2="478.78" y2="382.84"/><line class="cls-7" x1="470.58" y1="391" x2="470.58" y2="399.4"/><line class="cls-8" x1="480.22" y1="297.49" x2="480.22" y2="305.41"/><line class="cls-8" x1="476.26" y1="301.45" x2="484.54" y2="301.45"/><circle class="cls-5" cx="613.44" cy="284.91" r="5.64"/><circle class="cls-5" cx="602.17" cy="278.26" r="3.04"/><line class="cls-6" x1="32.23" y1="360.7" x2="110.7" y2="360.7"/><line class="cls-4" x1="146.28" y1="360.7" x2="408.72" y2="360.7"/><path class="cls-4" d="M662.52,360.7h363.92s43.24,0,43.24,53.22v40"/><circle class="cls-5" cx="16.32" cy="360.7" r="3.96"/><path class="cls-2" d="M489.32,395.63l48.32-32.26a18.19,18.19,0,0,1,20.16,0l48.63,32.28"/><line class="cls-2" x1="606.31" y1="350.89" x2="600.64" y2="340.09"/><path class="cls-4" d="M495.1,353.52V300s.24-6.24,6.72-6.24h93.12s5.48.48,5.38,5.28,0,54.47,0,54.47"/><line class="cls-2" x1="515.74" y1="313.21" x2="579.82" y2="313.21"/><line class="cls-2" x1="515.84" y1="325.45" x2="579.92" y2="325.45"/><line class="cls-2" x1="515.65" y1="336.49" x2="579.73" y2="336.49"/><line class="cls-4" x1="606.68" y1="368.09" x2="606.68" y2="374.41"/><path class="cls-2" d="M518.52,376.46l-26.47-25.93a2,2,0,0,0-3.31,1.39v41.34c0,4.79,4.86,4.79,4.86,4.79H602.5a4,4,0,0,0,4.14-4.08v-5.5"/><path class="cls-2" d="M606.68,361v-8.95a2,2,0,0,0-3.52-1.43L578,376.46"/><circle class="cls-3" cx="606.64" cy="381.41" r="2.46"/><line class="cls-7" x1="484.08" y1="624.48" x2="484.08" y2="611.04"/><line class="cls-7" x1="475.88" y1="619.2" x2="475.88" y2="627.6"/><line class="cls-8" x1="508.6" y1="514.3" x2="508.6" y2="522.22"/><line class="cls-8" x1="504.64" y1="518.26" x2="512.92" y2="518.26"/><circle class="cls-5" cx="590.14" cy="510.63" r="5.64"/><circle class="cls-5" cx="578.87" cy="503.98" r="3.04"/><line class="cls-6" x1="32.67" y1="591.08" x2="111.13" y2="591.08"/><line class="cls-4" x1="146.72" y1="591.08" x2="409.16" y2="591.08"/><path class="cls-4" d="M663,591.08h363.92s43.24,0,43.24,53.22v40"/><circle class="cls-5" cx="16.76" cy="591.08" r="3.96"/><circle class="cls-4" cx="548.16" cy="538.32" r="28.8"/><path class="cls-4" d="M503.08,612.84c0-24.66,20.49-44.8,45.58-44.8a46.39,46.39,0,0,1,40.11,23"/><line class="cls-2" x1="512.44" y1="624.18" x2="525.76" y2="624.18"/><polyline class="cls-2" points="536.02 624.17 607.66 624.17 607.66 579.89 593.98 579.89"/><line class="cls-2" x1="573.46" y1="607.98" x2="595.78" y2="607.98"/><line class="cls-2" x1="590.92" y1="614.1" x2="595.78" y2="607.98"/><line class="cls-2" x1="590.92" y1="601.98" x2="595.78" y2="608.1"/><circle class="cls-3" cx="503.08" cy="624.18" r="2.88"/></svg>