<svg id="Layer_1" data-name="Layer 1" xmlns="http://www.w3.org/2000/svg" viewBox="0 0 127 126"><defs><style>.cls-1,.cls-3{fill:#ccc;}.cls-1,.cls-2{stroke:#ccc;stroke-miterlimit:10;stroke-width:5px;}.cls-2{fill:none;}</style></defs><title>globe-11</title><path class="cls-1" d="M123.17,73.52a60.51,60.51,0,0,1-120.1-7l31.11-27.7,54.92,40,18.61-25.13Z"/><path class="cls-2" d="M124,63.5a60.13,60.13,0,0,1-.83,10L107.71,53.73,89.1,78.86,34.18,34.18,3.07,66.53c0-1-.07-2-.07-3a60.5,60.5,0,1,1,121,0Z"/><path class="cls-3" d="M114.6,31.11a8.77,8.77,0,0,1-6.42,3.07c-5.91,0-10.71-6.88-10.71-15.36a21.19,21.19,0,0,1,.59-5A60.66,60.66,0,0,1,114.6,31.11Z"/></svg>