<svg id="Layer_1" data-name="Layer 1" xmlns="http://www.w3.org/2000/svg" viewBox="0 0 346 4259"><defs><style>.cls-1{fill:#acd4c2;}.cls-2{fill:#ff9200;}.cls-3{fill:#0c425d;}.cls-4{fill:#abd4c0;}.cls-5{fill:#2b5a72;}.cls-6{fill:#ccc;}.cls-7{fill:#fff;stroke:#0c425d;}.cls-7,.cls-8,.cls-9{stroke-miterlimit:10;}.cls-7,.cls-9{stroke-width:17px;}.cls-8{fill:#96faff;stroke:#cfc;stroke-width:7px;}.cls-9{fill:none;stroke:#f9ae4e;}</style></defs><title>icons</title><path class="cls-1" d="M154.83,16.12A52.87,52.87,0,1,1,102,69a52.92,52.92,0,0,1,52.86-52.87m0-6.94A59.81,59.81,0,1,0,214.64,69,59.81,59.81,0,0,0,154.83,9.18Z"/><path class="cls-1" d="M215.71,140.3v-6.94a45.32,45.32,0,0,0,0-90.64V35.77a52.27,52.27,0,0,1,0,104.53Z"/><path class="cls-1" d="M253,221h-6.95A91.23,91.23,0,0,0,63.6,221H56.66A98.17,98.17,0,1,1,253,221Z"/><path class="cls-1" d="M296.43,213.52h-6.94a73.87,73.87,0,0,0-73.78-73.78V132.8A80.81,80.81,0,0,1,296.43,213.52Z"/><path class="cls-1" d="M94,140.3A52.27,52.27,0,0,1,94,35.77v6.95a45.32,45.32,0,0,0,0,90.64Z"/><path class="cls-1" d="M20.17,213.52H13.23A80.81,80.81,0,0,1,94,132.8v6.94A73.87,73.87,0,0,0,20.17,213.52Z"/><polygon class="cls-2" points="33.35 45.47 26.29 51.87 27.56 61.32 19.28 56.58 10.69 60.7 12.64 51.37 6.06 44.48 15.54 43.45 20.07 35.06 23.97 43.75 33.35 45.47"/><rect class="cls-3" x="308.8" y="195.09" width="9.12" height="20.86" rx="1.01"/><rect class="cls-3" x="327.05" y="180.49" width="10.95" height="35.45" rx="1.03"/><path class="cls-1" d="M192.19,360.34a65.54,65.54,0,1,1-65.53,65.54,65.61,65.61,0,0,1,65.53-65.54m0-9.93a75.47,75.47,0,1,0,75.47,75.47,75.46,75.46,0,0,0-75.47-75.47Z"/><rect class="cls-3" x="93.06" y="638.05" width="49.15" height="9.27"/><rect class="cls-4" x="62.44" y="636.4" width="7.45" height="9.27"/><polygon class="cls-2" points="316.49 357.75 316.49 367.4 306.83 367.4 306.83 377.06 297.18 377.06 297.18 367.4 287.52 367.4 287.52 357.75 297.18 357.75 297.18 348.1 306.83 348.1 306.83 357.75 316.49 357.75"/><rect class="cls-2" x="261.87" y="336.18" width="13.74" height="13.74"/><polygon class="cls-3" points="334.69 495.64 334.69 504.16 326.17 504.16 326.17 512.69 317.64 512.69 317.64 504.16 283.55 504.16 283.55 495.64 317.64 495.64 317.64 487.12 326.17 487.12 326.17 495.64 334.69 495.64"/><polygon class="cls-1" points="100.84 372.59 81.47 372.59 81.47 383.84 100.84 383.84 100.84 372.59 100.84 372.59"/><path class="cls-1" d="M323.11,625.81h-9.93a120.82,120.82,0,1,0-241.63,0H61.62c0-72.1,58.65-130.75,130.74-130.75S323.11,553.71,323.11,625.81Z"/><rect class="cls-3" x="159.26" y="637.39" width="178.74" height="9.93"/><rect class="cls-2" x="7" y="627.05" width="9.31" height="18.62" rx="1.01"/><rect class="cls-2" x="25.62" y="614.01" width="11.17" height="31.65" rx="1.03"/><path class="cls-5" d="M221.9,887.46a57.21,57.21,0,1,1,57.21-57.21A57.27,57.27,0,0,1,221.9,887.46Zm0-104.25a47,47,0,1,0,47,47A47.09,47.09,0,0,0,221.9,783.21Z"/><path class="cls-5" d="M78.57,887.46a57.21,57.21,0,1,1,57.21-57.21A57.27,57.27,0,0,1,78.57,887.46Zm0-104.25a47,47,0,1,0,47,47A47.1,47.1,0,0,0,78.57,783.21Z"/><path class="cls-5" d="M265.34,1035.15H178.46c-8.31,0-12.2-3.46-14-6.36-4.42-7.15,0-16.78.71-18.28l42-92.46a3.32,3.32,0,0,1,4.4-1.65l3.35,1.52a3.17,3.17,0,0,1,1.57,4.19L174.32,1015c-1.19,2.44-2.28,6.75-1.2,8.49.61,1,2.56,1.53,5.34,1.53h86.88c1.34,0,4.7-.59,5.66-2.18.83-1.35.25-4.28-1.52-7.84l-.17-.38-17.38-43.44,9.44-3.77,17.3,43.24c3.48,7.06,3.81,13,1,17.54C275.44,1035,266.36,1035.15,265.34,1035.15Z"/><path class="cls-1" d="M247.51,962.35l-18.4-40.69a3.14,3.14,0,0,1,1.56-4.15l3.69-1.66a3,3,0,0,1,3.95,1.49l18.46,40.82Z"/><rect class="cls-2" x="327.5" y="749.42" width="10.5" height="21" rx="1.01" transform="translate(665.5 1519.83) rotate(-180)"/><rect class="cls-2" x="304.27" y="782.42" width="11.86" height="33.6" rx="1.03" transform="translate(620.4 1598.43) rotate(-180)"/><path class="cls-2" d="M158.75,1456c-.63,0-63.51-.73-63.51-63.51h9.19c0,22.55,9,38.51,26.92,47.44a68.84,68.84,0,0,0,27.4,6.88c60.7,0,61.68-45,61.69-47V1285.69h9.19v114.16C229.63,1400.41,228.82,1456,158.75,1456Z"/><rect class="cls-2" x="198.35" y="1296.81" width="9.19" height="44.19" transform="translate(-1116.63 1517.47) rotate(-89.81)"/><path class="cls-2" d="M158.75,1419.17c-21.11,0-26.69-17.45-26.69-26.68v-22.1h9.19v22.1c0,1.77.65,17.5,17.5,17.5,1.78,0,17.5-.65,17.5-17.5V1284.78H225V1294h-39.6v98.52C185.44,1413.6,168,1419.17,158.75,1419.17Z"/><path class="cls-5" d="M141.25,1355.66h-9.19v-32.23H95.24v-38.65h46Zm-36.82-41.42h27.63V1294H104.43Z"/><rect class="cls-5" x="95.24" y="1318.84" width="9.19" height="58.92"/><path class="cls-2" d="M214.75,1289.42l-9.18-.09.15-15.22.11-.48c.25-1.11,2.62-11,8.6-17,5.78-5.79,6-11.32,6-11.55v-7.3h9.19v7.37c0,.94-.24,9.51-8.71,18-3.3,3.3-5.36,9.43-6,12Z"/><path class="cls-5" d="M104,1277.89c-.89-.89-8.71-9-8.71-18v-14.73c0-.17-.23-5.7-6-11.49l6.49-6.49c8.47,8.46,8.72,17,8.72,18v14.73c0,4.45,4.45,9.92,6,11.48Z"/><rect class="cls-5" x="102.6" y="1164.17" width="9.19" height="29.46"/><path class="cls-5" d="M158.75,1277.93a32.75,32.75,0,1,1,32.74-32.74A32.78,32.78,0,0,1,158.75,1277.93Zm0-58.92a26.18,26.18,0,1,0,26.18,26.18A26.21,26.21,0,0,0,158.75,1219Z"/><path class="cls-5" d="M199.26,1211.64a43.79,43.79,0,1,1,43.79-43.79A43.84,43.84,0,0,1,199.26,1211.64Zm0-81a37.23,37.23,0,1,0,37.23,37.22A37.27,37.27,0,0,0,199.26,1130.63Z"/><rect class="cls-5" x="92.84" y="1173.83" width="29.6" height="9.19"/><path class="cls-5" d="M158.72,1254.31a13,13,0,1,1,13-13A13,13,0,0,1,158.72,1254.31Zm0-20.75a7.75,7.75,0,1,0,7.75,7.75A7.76,7.76,0,0,0,158.72,1233.56Z"/><path class="cls-5" d="M177.77,1267.68h-5.25a13.81,13.81,0,0,0-27.61,0h-5.24a19.05,19.05,0,0,1,38.1,0Z"/><path class="cls-5" d="M199.51,1178.47a17.08,17.08,0,1,1,17.07-17.07A17.09,17.09,0,0,1,199.51,1178.47Zm0-28.9a11.83,11.83,0,1,0,11.82,11.83A11.85,11.85,0,0,0,199.51,1149.57Z"/><path class="cls-5" d="M225,1198.13h-5.25a20.26,20.26,0,1,0-40.51,0H174a25.51,25.51,0,1,1,51,0Z"/><path class="cls-2" d="M291.61,1654.47a28.66,28.66,0,0,1-11.49-2.4L262,1644.16l-.47-.32a15.78,15.78,0,0,0-14.61-1.52l-19.69,7.88a42.45,42.45,0,0,1-31.65,0l-21.79-8.72a14.55,14.55,0,0,0-11.89.49l-17.94,9a30,30,0,0,1-23.08,1.64l-13-4.33a21.19,21.19,0,0,1-10.43-7.46A37.13,37.13,0,0,1,92,1630.4c-3.07-9.21,1.15-22.85,5-29.18L112.34,1577a26.2,26.2,0,0,1,22.28-12.49H289a24.74,24.74,0,0,1,21.06,11.88L328,1605.92a25.65,25.65,0,0,1,3.46,17.19c-.15,1-.33,1.91-.52,2.81a33.27,33.27,0,0,1-22.06,24.36L300.7,1653A28.65,28.65,0,0,1,291.61,1654.47Zm-23.52-21.55,17.13,7.48a16,16,0,0,0,11.45.51l8.14-2.71a20.49,20.49,0,0,0,13.64-14.94c.14-.68.27-1.39.39-2.12a12.82,12.82,0,0,0-1.78-8.63L299.21,1583a12,12,0,0,0-10.17-5.74H134.62a13.45,13.45,0,0,0-11.45,6.46l-15.39,24.24c-3,5-5,14.59-3.72,18.45a24.35,24.35,0,0,0,3.6,6.82,8.74,8.74,0,0,0,4.24,3l13,4.33a17.38,17.38,0,0,0,13.36-1l17.93-9a27.29,27.29,0,0,1,22.32-.93l21.79,8.71a29.67,29.67,0,0,0,22.19,0l19.69-7.87A28.52,28.52,0,0,1,268.09,1632.92Z"/><rect class="cls-2" x="306.24" y="1641.58" width="12.73" height="34.46" transform="translate(-8.46 1.62) rotate(-0.29)"/><path class="cls-3" d="M303.73,1933H119.08c-.62,0-15.15-.27-15.15-24V1658.46h12.73v250.59c0,7.75,1.94,10.29,2.53,10.88.08.09-.22.34-.11.34H303.57c1.3-1.21,2.58-6.72,2.58-11.22V1698h12.74v211C318.89,1920.1,314.92,1933,303.73,1933Z"/><polygon class="cls-3" points="148.41 1926.65 147.87 1691.66 274.92 1691.66 274.92 1926.63 262.19 1926.63 262.19 1704.39 160.64 1704.39 161.15 1926.62 148.41 1926.65"/><rect class="cls-3" x="200.64" y="1698.03" width="12.73" height="233"/><rect class="cls-2" x="51.17" y="1650.88" width="12.73" height="61.55"/><rect class="cls-2" x="16" y="1686.05" width="12.73" height="35.17"/><path class="cls-1" d="M215.21,1599.8l-4.58,7.93-4.58-7.93h9.16m13.87-12.73H192.19a4.73,4.73,0,0,0-4.1,7.09l18.45,31.95a4.73,4.73,0,0,0,8.19,0l18.44-31.95a4.72,4.72,0,0,0-4.09-7.09Z"/><path class="cls-2" d="M268.48,2084.78H91.7v-8.93H268.48a8.24,8.24,0,0,0,4.9-1.63l7.69-5.77a1.32,1.32,0,0,0,0-2.12l-8.42-6.31a5.46,5.46,0,0,0-3.26-1.09H152V2050H269.39a14.47,14.47,0,0,1,8.62,2.87l8.42,6.32a10.26,10.26,0,0,1,0,16.41l-7.7,5.77A17.19,17.19,0,0,1,268.48,2084.78Z"/><rect class="cls-3" x="108.94" y="2049.6" width="30.17" height="8.93"/><rect class="cls-2" x="263.92" y="2084.63" width="8.93" height="43.09"/><path class="cls-2" d="M263.34,2208a4.14,4.14,0,0,0,.27-.39l-7.69-4.54c.6-1,1.56-1.91,5.53-5.53,9.67-8.83,32.31-29.49,37.14-45.22,1.6-5.24,2.15-35.67.23-39.88a14.41,14.41,0,0,0-6.56-6.52c-6.21-3.06-20.27-.48-22.31.17a2.26,2.26,0,0,0,.31-.12l-3.76-8.1c1.77-.82,19.89-4.8,29.71,0a23.53,23.53,0,0,1,10.68,10.72c3.52,7.45,1.93,40.79.23,46.31-5.53,18.06-28.58,39.09-39.65,49.19C265.64,2205.75,263.74,2207.48,263.34,2208Z"/><rect class="cls-2" x="255.3" y="2153.58" width="8.93" height="56.02"/><path class="cls-2" d="M212,2252.85H161.19a16,16,0,0,1-11.44-4.74l-41-41V2084.63h8.93v118.81l38.36,38.36a7.2,7.2,0,0,0,5.12,2.12H212a6.64,6.64,0,0,0,4.74-2l39.82-39.82,6.32,6.32-39.82,39.82A15.56,15.56,0,0,1,212,2252.85Z"/><rect class="cls-2" x="191.05" y="2261.16" width="34.48" height="8.93" transform="translate(-2059.97 2442.91) rotate(-89.22)"/><path class="cls-2" d="M238.37,2304.56H143.25v-14.93l6.68-6.68a15.47,15.47,0,0,1,11-4.56h60.21a14.37,14.37,0,0,1,10.22,4.24l7,7Zm-86.18-8.93h77.25v-2.3l-4.38-4.39a5.53,5.53,0,0,0-3.91-1.62H160.94a6.59,6.59,0,0,0-4.7,1.95l-4.05,4.06Z"/><rect class="cls-2" x="160.49" y="2265.62" width="8.93" height="17.24"/><path class="cls-2" d="M110.09,2208.45c-1.08-1.08-26.47-26.57-35.31-44.26s-9.09-26.86-9.09-27.85V2119.1c0-8.91,2.74-15.4,8.16-19.3,9.4-6.78,23-2.36,23.57-2.17l-2.83,8.47,1.42-4.23-1.4,4.24c-2.74-.9-10.86-2.47-15.56.95-2.94,2.13-4.43,6.18-4.43,12v17.24s.26,8.09,8.14,23.86c8.2,16.4,33.39,41.68,33.64,41.93Z"/><polygon class="cls-1" points="185.74 2130.39 194.25 2147.99 213.57 2150.96 199.46 2164.49 202.61 2183.79 185.38 2174.55 168 2183.51 171.46 2164.26 157.57 2150.5 176.94 2147.85 185.74 2130.39"/><rect class="cls-3" x="47.79" y="2043" width="8.93" height="37"/><polygon class="cls-3" points="31.3 2079.53 22.48 2074.71 13.51 2079.24 15.37 2069.37 8.29 2062.24 18.26 2060.96 22.85 2052.02 27.15 2061.1 37.07 2062.71 29.76 2069.6 31.3 2079.53"/><rect class="cls-3" x="323.07" y="2203.94" width="8.93" height="37"/><rect class="cls-3" x="299.3" y="2256.08" width="8.93" height="22.97"/><polygon class="cls-1" points="103.74 2790.8 88.46 2744.59 51.4 2756.85 102.71 2621.71 115.27 2626.48 73.98 2735.23 96.99 2727.61 101.58 2741.47 128.3 2628.25 141.37 2631.33 103.74 2790.8"/><polygon class="cls-1" points="223.4 2791 182.35 2631.47 195.36 2628.12 224.51 2741.41 228.74 2727.56 251.92 2734.65 208.18 2626.87 220.62 2621.82 274.99 2755.75 237.66 2744.34 223.4 2791"/><path class="cls-3" d="M162.49,2642.3a119.9,119.9,0,1,1,119.9-119.9A120,120,0,0,1,162.49,2642.3Zm0-226.36A106.46,106.46,0,1,0,269,2522.4,106.58,106.58,0,0,0,162.49,2415.94Z"/><path class="cls-3" d="M162.49,2594.64a72.24,72.24,0,1,1,72.24-72.24A72.33,72.33,0,0,1,162.49,2594.64Zm0-131a58.81,58.81,0,1,0,58.81,58.81A58.87,58.87,0,0,0,162.49,2463.59Z"/><polygon class="cls-2" points="190.31 2562.63 165.03 2548.9 139.4 2561.94 144.65 2533.66 124.33 2513.32 152.84 2509.57 165.91 2483.95 178.29 2509.91 206.69 2514.43 185.83 2534.22 190.31 2562.63"/><rect class="cls-2" x="293.51" y="2588.67" width="13.44" height="23.03"/><rect class="cls-2" x="320.38" y="2546.07" width="13.44" height="34.55"/><rect class="cls-2" x="8.5" y="2438.01" width="13.44" height="34.55"/><rect class="cls-1" x="320.71" y="2978.87" width="13.29" height="64.02"/><rect class="cls-2" x="320.71" y="2914.84" width="13.29" height="32.01"/><path class="cls-1" d="M159.24,2956.45a102.81,102.81,0,0,1,3.87-35.12c7.39-24.61,24-39.57,47.9-43.25a44.59,44.59,0,0,1,26.32,3.63c14.94,7.22,39.48,26.51,36,74.62l-13.25-1c2.77-38.26-14-54.67-28.53-61.7a31.45,31.45,0,0,0-18.51-2.46c-45.05,6.93-40.76,61.72-40.55,64Z"/><polygon class="cls-2" points="67.78 2994.55 46.91 2983.09 25.64 2993.78 30.09 2970.39 13.35 2953.47 36.96 2950.47 47.89 2929.32 58.03 2950.86 81.53 2954.71 64.18 2971.01 67.78 2994.55"/><polygon class="cls-3" points="334 3194.57 104.64 3194.57 104.64 2949.2 303.35 2949.2 303.35 2962.49 117.93 2962.49 117.93 3181.28 320.71 3181.28 320.71 3099.89 334 3099.89 334 3194.57"/><path class="cls-6" d="M323.05,3486a152.4,152.4,0,0,1-302.5-17.59l78.35-69.77,138.32,100.81,46.89-63.3Z"/><path class="cls-6" d="M172.75,3619A158.07,158.07,0,0,1,14.69,3468.68l-.13-2.8,84-74.78L236,3491.27l48-64.82,45.27,58-.43,2.54A157.61,157.61,0,0,1,172.75,3619ZM26.57,3470.88a146.54,146.54,0,0,0,290.26,16.65l-32.59-41.72-45.77,61.79L99.27,3406.14Z"/><path class="cls-6" d="M238.28,3507.85l-138.89-113-84.07,87.44-.63-13.63c-.13-2.83-.19-5.42-.19-7.91,0-87.26,71-158.25,158.25-158.25A158.33,158.33,0,0,1,328.83,3487l-2.21,13.11-42.38-54.25ZM98.41,3379,236.16,3491,284,3426.45l34.92,44.71c.25-3.45.37-6.93.37-10.41a146.49,146.49,0,0,0-146.53-146.53c-78.49,0-142.76,62-146.37,139.65Z"/><path class="cls-6" d="M301.46,3379.16c-4.5,4.86-10.1,7.74-16.18,7.74-14.88,0-27-17.33-27-38.68a53.12,53.12,0,0,1,1.48-12.57A152.84,152.84,0,0,1,301.46,3379.16Z"/><path class="cls-5" d="M35.74,913.58h86.87c8.32,0,12.2,3.46,14,6.36,4.41,7.15,0,16.78-.71,18.28l-42,92.46a3.32,3.32,0,0,1-4.4,1.65l-3.36-1.52a3.17,3.17,0,0,1-1.57-4.19l42.22-92.86C128,931.33,129,927,128,925.28c-.6-1-2.55-1.53-5.34-1.53H35.74c-1.35,0-4.7.59-5.67,2.18-.82,1.35-.25,4.28,1.53,7.83l.17.39,17.38,43.44-9.44,3.77-17.3-43.25c-3.48-7.05-3.81-13-1-17.54C25.63,913.78,34.72,913.58,35.74,913.58Z"/><path class="cls-1" d="M52.48,986.21l16.8,41.39a3.14,3.14,0,0,1-1.73,4.08l-3.74,1.52a3,3,0,0,1-3.9-1.65L43.06,990Z"/><path class="cls-7" d="M249,3990.37V3794H115.39c-9.15,0-16.56,7.92-16.56,17.69v26"/><ellipse class="cls-8" cx="99.48" cy="3858.54" rx="6.48" ry="6.93"/><polyline class="cls-9" points="249 4003.42 249 4038 212.98 4038"/><polyline class="cls-7" points="197.72 4038 98.83 4038 98.83 3881.11"/></svg>