<svg id="Layer_1" data-name="Layer 1" xmlns="http://www.w3.org/2000/svg" viewBox="0 0 185.76 195.48"><defs><style>.cls-1{fill:#e5f4fd;}.cls-2{fill:#fff;}.cls-11,.cls-12,.cls-13,.cls-14,.cls-3,.cls-4,.cls-5,.cls-6,.cls-7,.cls-8,.cls-9{fill:none;stroke-miterlimit:10;}.cls-3{stroke:#d5d5d5;}.cls-3,.cls-9{stroke-width:0.25px;}.cls-4,.cls-5,.cls-6,.cls-7{stroke:#a8d1bd;}.cls-12,.cls-4{stroke-width:0.5px;}.cls-5,.cls-6,.cls-8{stroke-width:2px;}.cls-11,.cls-12,.cls-13,.cls-14,.cls-6,.cls-7,.cls-8{stroke-linecap:round;}.cls-7{stroke-width:0.75px;}.cls-12,.cls-14,.cls-8,.cls-9{stroke:#0f425d;}.cls-10{fill:#f9ae50;}.cls-11{stroke:#f9ae50;}.cls-13{stroke:#fff;}.cls-14{stroke-width:3px;}</style></defs><title>BO Login Page_</title><circle class="cls-1" cx="91.88" cy="98.1" r="53.76"/><circle class="cls-2" cx="53.28" cy="83.11" r="7.07"/><line class="cls-3" x1="48.64" y1="81.41" x2="62.82" y2="81.41"/><line class="cls-3" x1="48.64" y1="83.34" x2="62.82" y2="83.34"/><line class="cls-3" x1="48.64" y1="85.37" x2="62.82" y2="85.37"/><path class="cls-4" d="M62.14,81.59s-2.31-1.86-6.28-.18a7.44,7.44,0,0,0-2.74,1.93s-2.25,2.84-4.15,2"/><circle class="cls-2" cx="112.64" cy="95.42" r="14.52"/><path class="cls-5" d="M70.42,80.06,76.9,67.82h38.88l6.84,12.24a11,11,0,0,1-5.47,4.1c-2,.7-5.67-.17-7.34-.8l-4.2-1.59a16.83,16.83,0,0,1-9,3.51,12.89,12.89,0,0,1-9.13-3.44s-2.37,2.69-8.88,3.08S70.42,80.06,70.42,80.06Z"/><line class="cls-6" x1="119.14" y1="83.24" x2="119.14" y2="89.6"/><circle class="cls-7" cx="119.02" cy="92.55" r="0.78"/><path class="cls-8" d="M119.07,95.72v31.05a1.27,1.27,0,0,1-1.39,1.71H76.15s-1.82,0-1.82-1.53v-5.31"/><path class="cls-9" d="M83.43,128.25V91.44A1.52,1.52,0,0,1,85,90H96.79v38.25h12.83V91.5s.06-1.5-1.2-1.5H97.14"/><rect class="cls-9" x="60.57" y="96.39" width="19.17" height="5.04" rx="0.36"/><rect class="cls-9" x="60.57" y="96.39" width="19.17" height="5.04" rx="0.36"/><rect class="cls-9" x="60.57" y="104.91" width="19.17" height="5.04" rx="0.36"/><rect class="cls-9" x="60.42" y="113.25" width="19.17" height="5.04" rx="0.36"/><circle class="cls-10" cx="130.08" cy="91.38" r="1.74"/><circle class="cls-10" cx="129.61" cy="88.11" r="1.05"/><line class="cls-11" x1="67.22" y1="61.2" x2="67.22" y2="66.37"/><line class="cls-11" x1="64.84" y1="63.79" x2="69.79" y2="63.79"/><polyline class="cls-12" points="53.27 98.69 54.45 99.81 58.49 96.39"/><path class="cls-4" d="M55.44,96.57H52v4.09s-.05,1.08.94,1.08h4.19V100"/><polyline class="cls-12" points="53.27 106.72 54.45 107.84 58.49 104.42"/><path class="cls-4" d="M55.44,104.6H52v4.1s-.05,1.08.94,1.08h4.19V108"/><path class="cls-4" d="M55.44,113.18H52v4.1s-.05,1.08.94,1.08h4.19V116.6"/><line class="cls-11" x1="68.59" y1="124.59" x2="64.54" y2="128.73"/><line class="cls-11" x1="63.9" y1="126.47" x2="61.61" y2="128.81"/><polyline class="cls-13" points="131.16 122.52 124.56 122.52 123.36 122.52"/><line class="cls-13" x1="124.5" y1="120.96" x2="124.5" y2="122.52"/><line class="cls-13" x1="129.64" y1="122.52" x2="129.64" y2="118.7"/><line class="cls-13" x1="127.12" y1="122.52" x2="127.12" y2="115.75"/><circle class="cls-10" cx="53.12" cy="83.34" r="0.5"/><circle class="cls-10" cx="48.97" cy="85.37" r="0.5"/><circle class="cls-10" cx="55.86" cy="81.41" r="0.5"/><circle class="cls-10" cx="62.14" cy="81.59" r="0.5"/><path class="cls-14" d="M162,97.5s0,64.8-70.12,70"/><path class="cls-14" d="M22.08,97.5s0-64.8,70.13-70"/></svg>